<?xml version="1.0" standalone="no"?>
<!DOCTYPE svg PUBLIC "-//W3C//DTD SVG 20010904//EN"
 "http://www.w3.org/TR/2001/REC-SVG-20010904/DTD/svg10.dtd">
<svg version="1.0" xmlns="http://www.w3.org/2000/svg"
 width="700.000000pt" height="700.000000pt" viewBox="0 0 700.000000 700.000000"
 preserveAspectRatio="xMidYMid meet">
<metadata>
Created by potrace 1.14, written by Peter Selinger 2001-2017
</metadata>
<g transform="translate(0.000000,700.000000) scale(0.100000,-0.100000)"
fill="#000000" stroke="none">
<path d="M1025 6995 c-5 -2 -37 -11 -70 -21 -185 -55 -325 -205 -370 -397 -20
-85 -20 -546 0 -630 46 -194 191 -343 391 -403 55 -17 138 -18 1246 -18 654
-1 1189 -3 1189 -6 1 -3 2 -125 3 -272 l1 -268 -1177 0 c-648 0 -1180 0 -1183
-1 -238 -41 -411 -194 -466 -409 -17 -65 -19 -108 -18 -335 1 -190 5 -275 15
-315 33 -126 109 -238 212 -313 51 -37 157 -83 218 -94 22 -3 569 -7 1217 -7
647 -1 1178 -3 1178 -6 1 -3 2 -125 3 -272 l1 -268 -1165 -1 c-641 0 -1185 -3
-1209 -5 -162 -18 -326 -133 -405 -283 -59 -114 -65 -155 -65 -446 0 -143 5
-282 10 -310 21 -96 76 -194 153 -270 79 -77 144 -114 251 -142 66 -18 128
-19 1232 -19 640 1 1164 -1 1164 -4 1 -3 2 -138 3 -302 l1 -296 -40 -12 c-103
-31 -184 -91 -245 -182 l-42 -63 -444 -1 c-244 0 -446 -3 -448 -5 -5 -5 -8
-60 -7 -120 l1 -45 418 0 c229 1 424 0 432 -2 10 -2 17 -16 18 -35 17 -221
232 -402 466 -391 214 10 402 188 418 397 1 15 7 27 13 28 5 1 219 2 475 3
l465 1 0 84 0 84 -491 0 -491 -1 -43 65 c-49 75 -132 141 -216 172 -30 12 -58
21 -63 21 -4 0 -7 136 -7 302 l1 303 1200 0 c967 1 1211 4 1255 14 195 48 353
205 404 401 21 83 22 546 1 636 -45 196 -197 352 -395 405 -60 16 -153 18
-1244 18 -649 1 -1182 4 -1185 7 -3 3 -6 126 -6 272 l0 267 1190 1 c1111 0
1194 1 1249 18 198 59 340 204 390 396 18 71 22 540 5 621 -34 163 -127 288
-278 374 -119 67 -70 64 -1370 65 -645 0 -1176 2 -1180 4 -5 3 -7 516 -2 536
0 3 524 5 1164 6 639 0 1185 3 1212 6 210 25 394 194 450 413 21 83 21 542 0
632 -47 201 -198 355 -402 410 -26 7 -4967 15 -4988 8z m5017 -197 c74 -34
148 -109 185 -184 l28 -59 0 -290 0 -290 -32 -66 c-53 -108 -147 -182 -259
-207 -22 -4 -1139 -8 -2484 -7 l-2445 2 -55 21 c-80 31 -162 108 -202 190
l-33 66 -3 267 c-4 303 2 338 66 430 43 63 141 133 205 147 26 6 970 9 2507 8
l2465 -1 57 -27z m-52 -2003 c110 -29 209 -123 250 -237 17 -48 19 -80 17
-328 l-2 -275 -31 -65 c-51 -105 -147 -183 -259 -208 -50 -11 -4898 -9 -4940
2 -108 29 -206 110 -251 209 l-29 62 -2 275 c-2 246 0 280 16 327 41 113 120
193 230 230 l66 22 2440 1 c2105 0 2448 -2 2495 -15z m9 -2024 c113 -35 201
-121 241 -234 17 -45 19 -85 19 -307 0 -245 -6 -313 -33 -365 -45 -84 -121
-153 -208 -188 l-53 -21 -2465 0 -2465 0 -57 23 c-63 24 -147 94 -183 152 -50
79 -56 126 -53 416 l3 268 28 57 c48 98 126 167 225 199 54 17 172 18 2499 18
2362 1 2443 0 2502 -18z m-2411 -2080 c63 -32 99 -68 128 -127 85 -174 -47
-374 -246 -374 -127 1 -227 76 -266 202 -36 115 48 268 172 311 61 21 157 16
212 -12z"/>
<path d="M4151 6588 c-98 -15 -198 -86 -243 -173 -117 -222 33 -488 281 -499
187 -9 339 127 354 316 17 215 -174 388 -392 356z m145 -189 c104 -64 104
-224 0 -288 -105 -65 -247 4 -260 126 -15 137 143 235 260 162z"/>
<path d="M4873 6589 c-107 -19 -203 -92 -250 -188 -24 -49 -28 -68 -28 -146 0
-78 4 -97 28 -147 85 -172 281 -241 454 -157 180 87 244 306 140 480 -69 115
-213 181 -344 158z m136 -184 c76 -39 112 -145 75 -218 -31 -61 -69 -90 -132
-100 -127 -20 -234 120 -179 235 43 90 150 128 236 83z"/>
<path d="M5628 6595 c-2 -2 -19 -5 -38 -8 -44 -5 -126 -47 -166 -84 -35 -33
-77 -102 -92 -153 -36 -117 -3 -245 85 -334 128 -129 343 -133 472 -7 56 55
80 95 96 167 41 171 -52 341 -217 400 -37 13 -132 26 -140 19z m125 -201 c78
-51 96 -154 42 -236 -66 -99 -220 -96 -281 7 -60 104 -13 220 106 257 32 10
96 -3 133 -28z"/>
<path d="M1190 6265 l0 -75 1155 0 1155 0 0 75 0 75 -1155 0 -1155 0 0 -75z"/>
<path d="M4135 4565 c-157 -36 -254 -154 -263 -319 -4 -74 -2 -87 26 -146 79
-173 258 -246 437 -179 61 23 141 93 170 150 79 152 39 336 -95 434 -84 61
-179 82 -275 60z m165 -180 c88 -45 118 -158 64 -241 -75 -116 -247 -101 -300
25 -60 144 95 287 236 216z"/>
<path d="M4873 4569 c-263 -48 -372 -362 -195 -560 195 -219 563 -97 589 195
19 221 -179 404 -394 365z m149 -185 c52 -23 90 -84 90 -144 0 -102 -69 -174
-167 -174 -199 1 -236 278 -45 332 42 12 72 8 122 -14z"/>
<path d="M5566 4560 c-72 -23 -117 -52 -165 -107 -58 -65 -80 -130 -77 -228 2
-96 32 -168 95 -231 165 -166 448 -113 548 101 38 84 38 195 0 279 -70 152
-245 234 -401 186z m182 -174 c87 -45 120 -152 72 -234 -66 -111 -216 -118
-287 -13 -97 144 62 327 215 247z"/>
<path d="M1194 4221 c-2 -2 -4 -37 -4 -77 l0 -72 1155 0 1156 0 -3 76 -3 76
-1148 0 c-632 1 -1151 -1 -1153 -3z"/>
<path d="M4140 2545 c-78 -16 -130 -46 -183 -105 -66 -73 -90 -144 -85 -245 5
-94 33 -157 97 -221 107 -106 255 -128 396 -59 65 32 117 88 153 165 34 73 36
190 3 264 -68 154 -220 235 -381 201z m160 -180 c113 -57 121 -223 15 -292
-87 -57 -211 -21 -250 74 -61 146 94 289 235 218z"/>
<path d="M4850 2543 c-104 -26 -177 -85 -227 -183 -25 -48 -28 -66 -28 -145 0
-73 5 -99 23 -138 81 -170 283 -248 448 -173 229 105 273 407 83 569 -79 68
-198 96 -299 70z m170 -179 c41 -22 56 -37 75 -74 38 -73 12 -172 -56 -217
-96 -64 -229 -14 -259 96 -38 143 111 264 240 195z"/>
<path d="M5590 2545 c-75 -15 -128 -45 -179 -100 -54 -59 -82 -122 -89 -201
-16 -203 136 -368 338 -366 132 0 243 70 301 188 124 252 -96 536 -371 479z
m157 -178 c87 -46 120 -154 73 -235 -65 -109 -208 -118 -284 -19 -106 139 56
334 211 254z"/>
<path d="M1190 2204 c0 -63 2 -74 18 -75 60 -3 2269 -4 2280 -1 8 3 12 27 12
77 l0 72 -1155 0 -1155 0 0 -73z"/>
<path d="M5161 615 c-5 -5 -8 -44 -8 -85 l0 -76 129 0 128 0 0 86 0 85 -121 0
c-69 0 -124 -4 -128 -10z"/>
<path d="M5679 620 c-1 -3 -3 -41 -4 -86 l-2 -81 129 1 128 0 0 83 c0 67 -3
83 -15 84 -72 4 -235 3 -236 -1z"/>
<path d="M1080 572 c-6 -2 -10 -39 -10 -86 l0 -81 128 0 127 0 1 83 c1 45 -1
82 -5 83 -20 3 -232 4 -241 1z"/>
<path d="M1607 572 c-14 -3 -17 -17 -17 -85 l0 -83 127 1 128 0 2 83 c1 45 -1
82 -5 83 -20 3 -221 4 -235 1z"/>
</g>
</svg>
